PathFileType	4	(X/Y/Z)	s05c0201.trc
DataRate	CameraRate	NumFrames	NumMarkers	Units	OrigDataRate	OrigDataStartFrame	OrigNumFrames
200	200	4	50	mm	200	1000	2000
Frame#	Time	racr			lacr			c7			jug			rlel			rdr			llel			ldr			s2			lic			ric			lasi			rasi			rpsi			lpsi			rgt			lgt			rth1			rth2			rth3			rth4			rlfc			rmfc			rsh1			rsh2			rsh3			rsh4			rlmal			rmmal			rcal			rtoe			rmt5			lth1			lth2			lth4			lth3			llfc			lmfc			lsh1			lsh2			lsh3			lsh4			llmal			lmmal			lcal			ltoe			lmt5			SBIKE			LBIKE			RBIKE			
		X1	Y1	Z1	X2	Y2	Z2	X3	Y3	Z3	X4	Y4	Z4	X5	Y5	Z5	X6	Y6	Z6	X7	Y7	Z7	X8	Y8	Z8	X9	Y9	Z9	X10	Y10	Z10	X11	Y11	Z11	X12	Y12	Z12	X13	Y13	Z13	X14	Y14	Z14	X15	Y15	Z15	X16	Y16	Z16	X17	Y17	Z17	X18	Y18	Z18	X19	Y19	Z19	X20	Y20	Z20	X21	Y21	Z21	X22	Y22	Z22	X23	Y23	Z23	X24	Y24	Z24	X25	Y25	Z25	X26	Y26	Z26	X27	Y27	Z27	X28	Y28	Z28	X29	Y29	Z29	X30	Y30	Z30	X31	Y31	Z31	X32	Y32	Z32	X33	Y33	Z33	X34	Y34	Z34	X35	Y35	Z35	X36	Y36	Z36	X37	Y37	Z37	X38	Y38	Z38	X39	Y39	Z39	X40	Y40	Z40	X41	Y41	Z41	X42	Y42	Z42	X43	Y43	Z43	X44	Y44	Z44	X45	Y45	Z45	X46	Y46	Z46	X47	Y47	Z47	X48	Y48	Z48	X49	Y49	Z49	X50	Y50	Z50	
1000	5.0000	488.573411	1260.939922	-198.111252	455.201588	1274.887045	-458.218303	448.468093	1349.104196	-328.657591	385.611178	1197.043645	-318.448871	498.362145	1096.480922	35.252931	665.931061	967.309005	-76.739490	431.178446	1036.553559	-628.645502	640.228723	964.054269	-481.808393	-118.066606	1170.951450	-244.713898	1.588113	1197.276171	-408.468327	44.392252	1186.785311	-124.920455	56.602533	1143.050761	-383.827911	83.521727	1130.658661	-161.103144	-77.778363	1218.042198	-206.418311	-87.799523	1224.046712	-290.224895	15.288745	1062.272765	-97.637251	-59.098110	1087.459824	-427.709307	117.394424	1008.492886	-96.527902	203.624054	984.878314	-104.548590	263.832196	921.181029	-112.955900	219.736816	1015.533681	-118.967876	372.535067	828.469830	-150.236891	348.775803	822.072670	-259.190569	286.064573	766.825652	-116.610198	239.674896	692.009933	-123.241235	165.813911	648.651318	-119.572137	259.908402	672.208627	-149.663566	74.610139	555.235591	-115.956730	96.756152	562.750225	-198.461936	4.642557	586.689403	-157.733471	159.164729	333.737537	-161.534866	85.105966	402.487257	-94.289886	35.731619	971.057277	-456.830367	110.522474	928.650902	-458.383430	137.720466	952.886999	-447.737497	154.216116	849.618468	-458.811264	246.434564	734.200111	-432.764465	238.861771	718.517166	-326.332718	216.593704	608.030289	-459.345919	235.575862	523.150484	-449.365895	208.708116	438.730461	-447.698557	266.999655	524.582992	-427.003077	208.746312	318.752541	-442.399904	228.347406	348.830207	-365.822059	151.671058	277.135138	-399.607713	445.737532	264.818768	-405.493165	338.760606	233.295196	-468.519343	-264.459221	894.934569	-285.588012	-53.406130	79.062350	-474.940448	-53.371354	79.097083	-77.299329	
1001	5.0050	488.077489	1260.073527	-196.413158	455.431016	1276.192324	-456.416499	448.583518	1349.296724	-326.401431	385.312793	1197.364452	-317.506560	498.108076	1094.589798	35.923255	666.103671	967.269633	-77.446193	431.974407	1039.172311	-628.386907	640.256953	964.262542	-481.771530	-117.909965	1170.581328	-247.198911	2.635883	1197.355406	-410.220606	43.059267	1186.827070	-126.682789	57.593185	1142.684812	-385.619762	83.062015	1131.503594	-162.729210	-78.555023	1217.950266	-208.753740	-87.537583	1223.474157	-293.174096	15.456989	1064.242876	-99.108538	-58.831032	1086.217569	-429.428113	118.243134	1012.291017	-98.173076	205.041392	991.017307	-105.559193	266.972498	928.553984	-114.366069	220.513358	1022.074321	-120.256037	377.120717	837.752092	-151.846985	353.830599	830.794599	-260.217000	290.640689	776.712935	-117.520656	243.863286	701.891830	-124.198021	170.291610	658.649555	-120.333034	264.571303	681.918266	-150.150876	79.077421	564.991241	-116.975851	100.735064	572.719538	-199.978619	9.147198	595.734925	-159.066740	165.118944	344.061355	-161.515155	90.488968	412.451561	-94.727363	33.811869	967.861127	-458.171408	107.382127	923.480083	-459.629272	135.293515	947.135197	-449.558583	148.788389	843.065035	-460.005682	238.289300	725.331109	-433.259041	229.810624	709.622613	-327.241183	209.246162	599.218578	-460.909151	228.698401	514.578599	-450.642107	202.537805	429.822140	-449.238563	260.088737	516.166141	-428.238873	204.127092	310.361484	-443.772822	223.385456	340.856959	-367.087945	146.743045	269.601949	-401.179469	440.646926	254.424298	-404.952147	333.853961	223.795870	-468.759526	-264.445428	894.962267	-285.799423	-53.381226	79.038400	-474.963112	-53.380814	79.090463	-77.329219	
1002	5.0100	487.572682	1259.127763	-194.646875	455.747616	1277.451884	-454.499772	448.785054	1349.458101	-324.077085	384.995631	1197.708943	-316.534048	497.777547	1092.565831	36.671268	666.164827	967.222081	-78.122893	432.902626	1041.781118	-628.163000	640.350226	964.398300	-481.579911	-117.690727	1170.468239	-249.988329	3.991296	1197.419019	-412.173103	41.603578	1187.145683	-128.535513	58.617465	1142.358021	-387.303658	82.909214	1132.681928	-164.242974	-79.246112	1217.945877	-211.358149	-87.491611	1223.587101	-296.057121	15.549695	1066.473796	-100.524237	-58.361557	1085.058971	-431.243798	119.015598	1016.501289	-98.959067	206.131015	997.180290	-107.010335	269.537216	936.054554	-115.210895	220.790203	1028.410939	-122.193928	381.594692	847.616473	-152.693432	358.685996	838.847420	-261.427147	294.938980	786.616278	-118.681003	248.235990	711.854538	-125.064657	174.624747	668.445449	-121.250097	269.116892	691.659554	-150.655465	83.645985	574.452524	-118.019459	107.262664	581.840734	-200.841868	13.340143	604.578632	-160.037070	171.712955	354.302905	-161.630126	96.524064	422.197429	-95.144181	31.774648	964.787079	-459.635152	104.163163	918.409039	-461.026834	132.689720	941.320189	-451.187018	143.272466	836.794349	-460.997148	229.939548	717.292300	-434.174938	220.314803	701.075669	-328.604345	201.856041	591.309824	-462.151591	221.580278	506.860883	-451.859668	195.663398	421.844521	-450.720441	253.098826	508.289465	-429.383264	198.784009	302.850863	-444.854922	218.013466	333.316403	-368.355106	141.236139	262.618372	-402.817138	435.013399	244.418106	-404.175475	328.435017	214.918129	-468.896876	-264.402918	894.981813	-286.529550	-53.392037	79.010996	-474.971161	-53.389936	79.116698	-77.355700	
1003	5.0150	486.926468	1258.222372	-192.853182	456.179053	1278.580412	-452.547148	449.024109	1349.497233	-321.646898	384.680712	1197.960804	-315.439568	497.450061	1090.608662	37.441443	666.124301	967.206376	-78.775707	433.993415	1044.460262	-627.896999	640.537232	964.554844	-481.255237	-117.363394	1170.283687	-253.162756	5.477649	1197.460508	-414.097898	40.212007	1188.058580	-130.013768	59.599574	1141.925501	-388.978793	82.728227	1134.160826	-165.784494	-80.129264	1218.263422	-214.130023	-87.368185	1223.551646	-298.796723	15.339230	1068.927378	-101.939407	-57.768844	1084.013619	-433.102535	119.604406	1020.819089	-99.581079	206.847639	1003.459347	-108.472723	271.677019	943.800072	-116.370225	220.793100	1034.801870	-124.012244	385.390733	857.390271	-153.936281	362.770197	850.171606	-261.625217	298.937372	796.365143	-119.991413	252.433253	721.638614	-126.049986	179.041467	677.933495	-122.366427	273.427392	701.191063	-151.475813	88.248481	583.224571	-119.205550	110.961527	590.711683	-201.730358	17.606464	612.651735	-161.360941	179.012590	364.332598	-161.560036	102.726263	431.486975	-95.617951	29.784341	962.001157	-461.185807	100.835493	913.524804	-462.591266	130.032404	935.765450	-452.879446	137.809430	831.013017	-461.780316	221.675756	709.682046	-434.948391	211.122409	693.369957	-329.327671	194.394449	584.171193	-463.305433	214.137374	499.674198	-453.030103	188.329706	414.702317	-452.202501	245.240499	501.313120	-430.470007	193.077228	295.834237	-445.971545	212.265338	326.231911	-369.601548	135.245548	256.230720	-404.120989	428.845820	234.841949	-403.479212	322.417804	206.359649	-468.990177	-264.272594	894.973373	-287.021899	-53.408162	78.989591	-475.011622	-53.370429	79.136555	-77.387814	
